<svg xmlns="http://www.w3.org/2000/svg" x="0px" y="0px" width="100" height="100" viewBox="0 0 64 64">
<path d="M 13 6 C 9.1482075 6 6 9.1482075 6 13 L 6 31.871094 A 1.0001 1.0001 0 0 0 6 32.101562 L 6 51 C 6 54.851793 9.1482075 58 13 58 L 51 58 C 54.851793 58 58 54.851793 58 51 L 58 32.019531 L 58 13 C 58 9.1482075 54.851793 6 51 6 L 13 6 z M 13 8 L 51 8 C 53.768207 8 56 10.231793 56 13 L 56 31.695312 C 55.661254 32.251798 52.034532 38 46 38 C 41.364213 38 38.706069 36.248517 36.830078 34.408203 C 36.930484 33.926839 37 33.450692 37 33 C 37 30.250484 34.749516 28 32 28 C 29.250484 28 27 30.250484 27 33 C 27 33.450692 27.069516 33.926839 27.169922 34.408203 C 25.293931 36.248517 22.635787 38 18 38 C 11.965468 38 8.3387458 32.251798 8 31.695312 L 8 13 C 8 10.231793 10.231793 8 13 8 z M 19 13 C 14.477756 13 11 17.360512 11 22.5 C 11 27.639488 14.477756 32 19 32 C 23.522244 32 27 27.639488 27 22.5 C 27 17.360512 23.522244 13 19 13 z M 45 13 C 40.477756 13 37 17.360512 37 22.5 C 37 27.639488 40.477756 32 45 32 C 49.522244 32 53 27.639488 53 22.5 C 53 17.360512 49.522244 13 45 13 z M 19 15 C 22.209748 15 25 18.250647 25 22.5 C 25 26.749353 22.209748 30 19 30 C 15.790252 30 13 26.749353 13 22.5 C 13 18.250647 15.790252 15 19 15 z M 45 15 C 48.209748 15 51 18.250647 51 22.5 C 51 26.749353 48.209748 30 45 30 C 41.790252 30 39 26.749353 39 22.5 C 39 18.250647 41.790252 15 45 15 z M 19 19 C 18.635 19 18.290797 19.100766 17.966797 19.259766 C 18.580797 19.600766 19 20.248 19 21 C 19 22.104 18.105 23 17 23 C 16.642 23 16.310531 22.898375 16.019531 22.734375 C 16.015531 22.823375 16 22.909 16 23 C 16 25.209 17.343 27 19 27 C 20.657 27 22 25.209 22 23 C 22 20.791 20.657 19 19 19 z M 45 19 C 44.635 19 44.290797 19.100766 43.966797 19.259766 C 44.580797 19.600766 45 20.248 45 21 C 45 22.104 44.105 23 43 23 C 42.642 23 42.310531 22.898375 42.019531 22.734375 C 42.015531 22.823375 42 22.909 42 23 C 42 25.209 43.343 27 45 27 C 46.657 27 48 25.209 48 23 C 48 20.791 46.657 19 45 19 z M 32 30 C 33.668484 30 35 31.331516 35 33 C 35 33.834242 34.600394 35.24712 33.966797 36.318359 C 33.3332 37.389599 32.532446 38 32 38 C 31.467554 38 30.6668 37.389599 30.033203 36.318359 C 29.399606 35.24712 29 33.834242 29 33 C 29 31.331516 30.331516 30 32 30 z M 8 35.019531 C 9.9288823 37.199498 13.313136 40 18 40 C 22.108566 40 25.008202 38.671556 27.101562 37.083984 C 27.220394 38.388142 27.605317 39.808514 28.291016 41.083984 C 28.69287 41.831475 29.175413 42.517 29.775391 43.054688 C 30.375368 43.592374 31.13302 44 32 44 C 32.86698 44 33.624632 43.592374 34.224609 43.054688 C 34.824587 42.516999 35.30713 41.831475 35.708984 41.083984 C 36.394683 39.808514 36.779606 38.388142 36.898438 37.083984 C 38.991798 38.671556 41.891434 40 46 40 C 50.686864 40 54.071118 37.199498 56 35.019531 L 56 51 C 56 53.768207 53.768207 56 51 56 L 13 56 C 10.231793 56 8 53.768207 8 51 L 8 35.019531 z M 29.523438 38.904297 C 30.197805 39.550402 31.014181 40 32 40 C 32.985819 40 33.802195 39.550402 34.476562 38.904297 C 34.324288 39.332382 34.153418 39.755206 33.947266 40.138672 C 33.62537 40.737432 33.247835 41.246281 32.890625 41.566406 C 32.533415 41.886531 32.23802 42 32 42 C 31.76198 42 31.466585 41.886531 31.109375 41.566406 C 30.752165 41.246281 30.37463 40.737432 30.052734 40.138672 C 29.846582 39.755206 29.675712 39.332382 29.523438 38.904297 z M 12 48 C 11.448 48 11 48.448 11 49 L 11 51 C 11 51.552 11.448 52 12 52 C 12.552 52 13 51.552 13 51 L 13 49 C 13 48.448 12.552 48 12 48 z M 17 48 C 16.448 48 16 48.448 16 49 L 16 51 C 16 51.552 16.448 52 17 52 C 17.552 52 18 51.552 18 51 L 18 49 C 18 48.448 17.552 48 17 48 z M 22 48 C 21.448 48 21 48.448 21 49 L 21 51 C 21 51.552 21.448 52 22 52 C 22.552 52 23 51.552 23 51 L 23 49 C 23 48.448 22.552 48 22 48 z M 27 48 C 26.448 48 26 48.448 26 49 L 26 51 C 26 51.552 26.448 52 27 52 C 27.552 52 28 51.552 28 51 L 28 49 C 28 48.448 27.552 48 27 48 z M 32 48 C 31.448 48 31 48.448 31 49 L 31 51 C 31 51.552 31.448 52 32 52 C 32.552 52 33 51.552 33 51 L 33 49 C 33 48.448 32.552 48 32 48 z M 37 48 C 36.448 48 36 48.448 36 49 L 36 51 C 36 51.552 36.448 52 37 52 C 37.552 52 38 51.552 38 51 L 38 49 C 38 48.448 37.552 48 37 48 z M 42 48 C 41.448 48 41 48.448 41 49 L 41 51 C 41 51.552 41.448 52 42 52 C 42.552 52 43 51.552 43 51 L 43 49 C 43 48.448 42.552 48 42 48 z M 47 48 C 46.448 48 46 48.448 46 49 L 46 51 C 46 51.552 46.448 52 47 52 C 47.552 52 48 51.552 48 51 L 48 49 C 48 48.448 47.552 48 47 48 z M 52 48 C 51.448 48 51 48.448 51 49 L 51 51 C 51 51.552 51.448 52 52 52 C 52.552 52 53 51.552 53 51 L 53 49 C 53 48.448 52.552 48 52 48 z"></path>
</svg>